<svg width="30" height="30" viewBox="0 0 30 30" fill="none" xmlns="http://www.w3.org/2000/svg">
<path d="M18.125 11.25C18.125 12.9759 16.7259 14.375 15 14.375C13.2741 14.375 11.875 12.9759 11.875 11.25C11.875 9.52411 13.2741 8.125 15 8.125C16.7259 8.125 18.125 9.52411 18.125 11.25Z" stroke="#034C6C" stroke-width="1.5"/>
<path d="M22.7778 21.25C24.5209 23.7356 25.3548 25.0593 24.8581 26.1249C24.8083 26.2318 24.7499 26.3349 24.6836 26.4334C23.9654 27.5 22.1094 27.5 18.3972 27.5H11.6028C7.89064 27.5 6.03456 27.5 5.31639 26.4334C5.25006 26.3349 5.19174 26.2318 5.14193 26.1249C4.64524 25.0593 5.47908 23.7356 7.22222 21.25" stroke="#034C6C" stroke-width="1.5" stroke-linecap="round" stroke-linejoin="round"/>
<path d="M16.5718 21.867C16.1502 22.273 15.5866 22.5 15.0002 22.5C14.4137 22.5 13.8502 22.273 13.4286 21.867C9.56788 18.126 4.39399 13.9469 6.91714 7.87966C8.28138 4.59916 11.5562 2.5 15.0002 2.5C18.4442 2.5 21.719 4.59916 23.0832 7.87966C25.6032 13.9393 20.442 18.1389 16.5718 21.867Z" stroke="#034C6C" stroke-width="1.5"/>
</svg>
