<svg width="30" height="30" viewBox="0 0 30 30" fill="none" xmlns="http://www.w3.org/2000/svg">
<path d="M13.7536 2.5H12.5077C8.40554 2.5 6.35444 2.5 4.90049 3.51727C4.36257 3.89362 3.89471 4.36114 3.51806 4.89864C2.5 6.35145 2.5 8.40096 2.5 12.5C2.5 16.599 2.5 18.6485 3.51806 20.1014C3.89471 20.6389 4.36257 21.1064 4.90049 21.4827C6.35444 22.5 8.40554 22.5 12.5077 22.5H17.5116C21.6139 22.5 23.665 22.5 25.1189 21.4827C25.6568 21.1064 26.1246 20.6389 26.5014 20.1014C27.2695 19.0053 27.4579 17.6176 27.5 16.25" stroke="#034C6C" stroke-width="1.5" stroke-linecap="round"/>
<path d="M22.5 12.1429V13.75M22.5 12.1429C21.054 12.1429 19.7801 11.4326 19.0329 10.3541M22.5 12.1429C23.946 12.1429 25.2199 11.4326 25.9671 10.3541M19.0329 10.3541L17.5005 11.3393M19.0329 10.3541C18.591 9.7163 18.3334 8.94966 18.3334 8.125C18.3334 7.30044 18.5909 6.53389 19.0328 5.8961M25.9671 10.3541L27.4995 11.3393M25.9671 10.3541C26.409 9.7163 26.6666 8.94966 26.6666 8.125C26.6666 7.30044 26.4091 6.53389 25.9672 5.8961M22.5 4.10714C23.9461 4.10714 25.2201 4.8175 25.9672 5.8961M22.5 4.10714C21.0539 4.10714 19.7799 4.8175 19.0328 5.8961M22.5 4.10714V2.5M25.9672 5.8961L27.5 4.91071M19.0328 5.8961L17.5 4.91071" stroke="#034C6C" stroke-width="1.5" stroke-linecap="round"/>
<path d="M13.75 18.75H16.25" stroke="#034C6C" stroke-width="1.5" stroke-linecap="round" stroke-linejoin="round"/>
<path d="M15 22.5V27.5" stroke="#034C6C" stroke-width="1.5"/>
<path d="M10 27.5H20" stroke="#034C6C" stroke-width="1.5" stroke-linecap="round"/>
</svg>
