<svg width="13" height="15" viewBox="0 0 13 15" fill="none" xmlns="http://www.w3.org/2000/svg">
<path d="M1.34529 12.0632C1.49521 13.1767 2.4175 14.049 3.53985 14.1006C4.48426 14.144 5.44362 14.1667 6.50008 14.1667C7.55655 14.1667 8.5159 14.144 9.46031 14.1006C10.5827 14.049 11.505 13.1767 11.6549 12.0632C11.7527 11.3365 11.8334 10.5917 11.8334 9.83333C11.8334 9.07492 11.7527 8.33021 11.6549 7.6035C11.505 6.49001 10.5827 5.61766 9.46031 5.56606C8.5159 5.52265 7.55655 5.5 6.50008 5.5C5.44362 5.5 4.48426 5.52265 3.53985 5.56606C2.4175 5.61766 1.49521 6.49001 1.34529 7.6035C1.24744 8.33021 1.16675 9.07492 1.16675 9.83333C1.16675 10.5917 1.24744 11.3365 1.34529 12.0632Z" stroke="#64696F" stroke-width="1.5"/>
<path d="M3.5 5.50016V3.8335C3.5 2.17664 4.84315 0.833496 6.5 0.833496C7.80622 0.833496 8.83333 1.8335 9.16667 2.8335" stroke="#64696F" stroke-width="1.5" stroke-linecap="round" stroke-linejoin="round"/>
<path d="M6.49756 9.8335H6.50355" stroke="#64696F" stroke-width="1.5" stroke-linecap="round" stroke-linejoin="round"/>
</svg>
