<svg width="30" height="30" viewBox="0 0 30 30" fill="none" xmlns="http://www.w3.org/2000/svg">
<path d="M23.2701 25H23.8829C25.3202 25 26.4634 24.3451 27.4899 23.4295C30.0976 21.1032 23.9677 18.75 21.875 18.75M19.375 6.33596C19.6588 6.27966 19.9536 6.25 20.2559 6.25C22.5308 6.25 24.375 7.92893 24.375 10C24.375 12.0711 22.5308 13.75 20.2559 13.75C19.9536 13.75 19.6588 13.7203 19.375 13.664" stroke="#034C6C" stroke-width="1.5" stroke-linecap="round"/>
<path d="M5.60164 20.139C4.12792 20.9287 0.263922 22.5414 2.61736 24.5593C3.76699 25.545 5.04739 26.25 6.65715 26.25H15.8428C17.4526 26.25 18.733 25.545 19.8826 24.5593C22.2361 22.5414 18.3721 20.9287 16.8984 20.139C13.4425 18.287 9.05749 18.287 5.60164 20.139Z" stroke="#034C6C" stroke-width="1.5"/>
<path d="M16.25 9.375C16.25 12.1364 14.0114 14.375 11.25 14.375C8.48858 14.375 6.25 12.1364 6.25 9.375C6.25 6.61358 8.48858 4.375 11.25 4.375C14.0114 4.375 16.25 6.61358 16.25 9.375Z" stroke="#034C6C" stroke-width="1.5"/>
</svg>
